<svg width="436" height="62" viewBox="0 0 436 62" fill="none" xmlns="http://www.w3.org/2000/svg">
<path d="M36.3629 55.1984C36.3629 54.1322 37.5111 53.3121 38.0852 52.328C38.0031 51.5079 37.265 49.5396 38.0031 48.3914C38.6592 47.2433 39.3153 46.2591 39.6434 45.685C39.9714 45.193 40.7095 44.7009 41.0376 44.8649L41.9397 45.193C45.1382 40.6003 46.3684 35.8436 48.9927 31.1689C48.2546 31.0869 47.5165 31.743 47.1065 32.5631L46.1223 34.6134C45.7123 35.4335 45.0562 35.0235 45.2202 34.6954C45.9583 33.1372 46.9424 31.2509 47.5165 30.2668C48.0906 29.2827 49.4848 28.1345 50.551 28.4625C51.7811 26.2482 54.3235 23.2138 53.6674 21.6556C55.5537 20.5894 56.3738 18.3751 56.6198 16.0788C57.932 15.0946 58.1781 12.8803 58.1781 10.994C58.1781 7.87757 57.1119 3.69496 54.2415 3.69496C53.4214 3.69496 52.6833 4.10502 52.3552 4.67911C48.5827 11.8962 45.3842 19.1952 40.2995 25.5101C39.0693 25.1001 37.4291 24.608 36.3629 24.608C33.1645 24.608 29.884 24.936 27.5876 27.6424L25.8654 28.1345C25.8654 26.6583 26.8495 25.018 28.4078 24.2799C30.13 20.6714 33.0824 16.6528 33.9026 14.0285H34.4766C35.7068 9.84586 35.1327 7.87757 35.0507 5.08917C32.6724 2.87485 33.0004 0.332479 28.6538 0.332479C27.5876 0.332479 27.8337 0.742542 27.5056 0.988575C24.9633 7.3855 19.7965 15.3406 15.942 22.6397C14.4658 25.4281 13.9737 29.2006 12.4975 31.907C11.9234 33.0552 11.2673 33.6293 10.7752 34.8595L6.01853 36.8277L7.33072 37.5659C5.85451 38.304 4.13226 38.632 3.23013 40.2722C5.36244 40.2722 7.98682 39.9442 9.87309 40.3543C8.88895 46.7512 6.18256 49.7856 11.1033 52.9841L10.6932 53.9682C11.0213 54.0502 11.2673 54.2143 11.5953 54.2143H12.0054C12.0874 54.2143 12.1694 54.2143 12.2514 54.1322C12.3334 54.1322 12.4155 54.0502 12.4155 54.0502C13.3996 55.0344 13.8097 55.9365 15.5319 55.9365C16.352 52.164 18.9764 42.4866 20.5346 38.714C21.0267 37.4838 21.6828 36.4997 22.995 36.4997C23.405 36.4997 23.8151 36.7457 24.0611 37.0738C24.7992 37.0738 31.8523 36.0896 33.8205 36.0896L34.2306 36.8277C31.7702 41.3384 28.1617 48.8015 28.1617 53.7222C28.1617 57.3307 33.0004 60.5292 35.2147 61.8414C36.4449 61.8414 37.6751 57.3307 38.9053 55.0344C39.8074 53.3121 41.2836 50.8518 40.2175 50.2777C38.4132 54.0502 36.937 56.4286 36.3629 55.1984ZM41.1196 46.3411L40.8736 46.0951C40.7095 45.9311 40.4635 46.0951 40.2995 46.3411L39.0693 48.1454L39.1513 49.0475C39.1513 49.2935 39.3974 49.2935 39.5614 48.9655L41.1196 46.3411ZM45.3842 36.3357L43.1699 40.8463C42.6778 41.9125 41.9397 43.3067 40.9556 43.3887L44.3181 36.8277C44.4821 36.4997 45.0562 36.2537 45.3842 36.3357ZM36.773 51.6719L35.3788 54.4603L34.8867 53.8042L35.7068 52.164C35.9529 51.6719 36.5269 51.6719 36.773 51.6719ZM28.4898 45.521C28.6538 45.521 29.802 44.7829 30.294 42.5686L29.3919 42.2405L28.4898 45.521ZM2.82007 39.1241C2.98409 38.796 2.73806 38.796 2.57404 38.9601C1.83593 39.6162 0.769775 40.4363 0.769775 40.6823L2.328 40.3543L2.82007 39.1241ZM20.0426 37.4838L19.1404 39.9442L18.4023 39.6982C18.8124 38.632 19.3044 37.4838 20.0426 37.4838Z" fill="white"/>
<path d="M101.102 36.0076C101.348 32.3991 98.2319 29.6107 98.3139 28.6266C98.4779 26.3302 99.134 23.9519 99.6261 22.1476C99.38 21.9836 99.298 21.9836 99.134 21.8196C100.364 21.0815 100.528 14.0285 100.446 13.6184C98.888 11.2401 100.61 6.81142 97.5758 4.18704C97.1657 3.85899 95.1154 5.41722 95.1974 4.02301L96.6737 3.53094C95.4435 2.5468 93.1471 1.56266 92.081 1.23461C91.917 2.79284 89.6206 1.97272 89.0465 2.46479C85.8481 5.00716 81.9935 8.45165 78.139 13.5364C70.4299 23.8699 56.7339 37.1558 54.9296 49.5396H56.2418C55.3397 51.6719 58.8662 52.738 59.1122 55.2804L64.279 57.4947C65.5912 55.7725 66.8213 52.41 68.2155 49.5396L67.8875 48.5554L68.2976 47.4893C71.9881 44.9469 84.3719 38.304 89.0465 38.468C89.2106 39.6982 88.8005 39.9442 88.8825 40.9283L87.4883 39.2061C87.2423 40.1902 86.9962 43.0606 86.7502 44.2088C87.7344 44.6189 87.7344 42.8146 87.8164 41.5024L88.8005 41.9125C88.6365 43.7988 87.7344 47.1612 87.1603 47.1612C87.2423 45.9311 87.2423 44.8649 86.6682 44.8649C86.1761 47.3253 85.192 49.7036 85.028 51.5899C85.028 52.164 85.356 52.41 85.7661 52.41C85.6841 52.9841 85.356 53.2301 84.946 53.2301L84.8639 54.3783C86.0121 54.3783 86.2581 55.0344 86.1761 56.6746C87.4883 56.1825 89.7847 58.6429 92.327 58.6429C93.1471 56.1825 93.8032 53.9682 93.9673 51.1798C93.8032 51.3438 92.9831 51.7539 93.0651 51.4259C94.7874 49.1295 94.4593 48.2274 93.9673 46.9972C95.0334 46.0131 95.6895 43.9628 94.5413 43.3067C96.2636 41.6664 96.0176 38.0579 96.6737 36.6637C98.0679 36.4997 99.6261 36.1717 101.102 36.0076ZM94.4593 12.5522C93.5572 16.2428 92.409 22.8857 91.4249 25.4281L90.0307 24.1979C89.7026 25.3461 88.8825 26.9043 88.6365 29.0366C85.6841 29.8567 83.9618 30.1848 81.0914 31.415C77.8109 32.8092 76.5808 34.5314 74.9405 35.5156C76.8268 32.8092 79.0411 29.2827 80.5173 27.3964C81.5835 26.0842 82.7316 24.608 83.9618 22.9677C83.2237 21.4095 83.7978 20.6714 85.11 19.1952C85.438 19.5232 85.192 20.0153 84.946 20.6714L85.356 21.0815C88.8825 16.4068 92.6551 11.8141 94.2133 11.7321L94.4593 12.5522ZM90.5228 27.9705L90.4408 28.8726C89.8667 28.9546 89.2926 28.9546 89.6206 27.9705H90.5228ZM90.4408 27.4784H89.7026L90.0307 26.5763L90.3587 26.6583L90.4408 27.4784ZM87.5703 47.4893L87.2423 48.8015H86.7502L87.0783 47.7353L87.5703 47.4893ZM76.0067 41.4204L69.7738 44.7009C70.1018 44.1268 70.2658 43.7988 70.6759 43.2247C72.2341 42.4046 74.9405 40.6003 76.0067 41.4204ZM76.9908 40.9283C77.3189 39.6162 78.057 39.4521 79.8612 39.3701V39.4521C78.9591 40.0262 77.7289 40.5183 76.9908 40.9283ZM93.3932 14.0285L92.6551 14.3565L91.999 16.5708H92.7371L93.3932 14.0285ZM71.496 41.7485L72.4802 40.3543C73.0542 40.1082 73.5463 40.0262 74.2024 39.7802C73.7103 40.9283 71.8241 41.5844 71.496 41.7485Z" fill="white"/>
<path d="M137.871 0.168457C130.244 0.168457 133.853 7.95958 125.569 9.68183C120.567 10.666 112.94 10.3379 109.741 10.0099C108.921 10.83 108.593 11.7321 108.593 12.7163C108.593 15.1766 110.069 18.7851 111.299 20.6714C113.924 21.3275 114.17 20.1793 117.778 20.1793H124.175C120.075 29.5287 115.4 41.6664 115.4 43.7167C115.4 44.2908 115.728 45.0289 116.056 45.439C116.384 48.6375 116.22 51.4259 118.352 52.164L118.024 53.0661C119.418 53.3941 121.387 53.6402 123.355 53.4762C124.257 49.7856 125.651 45.521 127.21 41.2564C126.471 41.0924 126.061 41.3384 125.651 42.0765L124.995 41.6664C125.569 40.2722 126.143 38.796 126.882 37.2378C127.21 37.8939 126.718 39.4521 127.538 39.4521C128.112 39.4521 128.522 37.6479 128.932 36.5817C128.932 35.9256 128.85 35.2695 128.44 34.2034C128.85 32.8912 128.932 31.0869 129.834 30.9229C130.326 30.8409 129.506 32.4811 130.408 32.5631C131.228 32.6451 132.458 29.3647 132.868 27.6424L132.13 27.2324C132.622 26.8223 133.607 25.8382 133.853 25.1001C135.575 19.9333 136.477 18.8672 139.265 18.5391C139.757 17.883 140.331 17.473 141.07 17.555V18.4571H142.218C149.025 15.5047 156.242 16.1608 161.163 15.1766C161.08 15.0126 160.998 14.7666 160.998 14.5205C160.998 14.1925 161.245 13.9464 161.573 13.9464C161.819 13.9464 162.229 14.0285 162.721 14.2745L162.885 14.7666C163.377 14.6025 163.787 14.4385 164.197 14.1925C163.459 12.9623 162.721 10.83 164.115 9.59982C163.049 6.64739 160.178 5.17118 156.652 4.26905C152.879 4.76112 146.81 6.07331 141.398 7.22148L137.871 0.168457ZM131.392 29.1186L130.736 30.5948L130.244 30.0208L131.064 28.5446L131.392 29.1186Z" fill="white"/>
<path d="M194.798 12.8803C195.372 9.51781 193.075 7.3855 191.927 4.67911C190.697 4.02301 188.729 3.12088 187.745 3.12088C184.874 3.12088 169.21 12.3882 167.078 17.555H166.504C166.586 18.2931 166.668 19.2772 166.914 19.8513H165.929C165.027 19.8513 163.305 24.1159 162.403 24.1159C161.255 24.1159 162.813 22.8857 161.747 22.8857C160.681 22.8857 157.4 28.3805 155.678 31.825C155.268 32.7272 155.924 33.8753 155.35 34.7775L154.53 34.2854C154.53 36.0076 154.448 37.7299 153.136 38.878V41.0924C153.136 41.9945 153.3 43.2247 153.71 43.8808C154.366 45.1109 157.482 50.3597 158.958 51.7539C161.583 51.4259 162.075 53.4762 164.043 53.4762C164.863 53.4762 165.601 54.7883 166.504 54.7883C168.39 54.7883 171.014 54.0502 172.736 53.6402C172.244 53.0661 172.818 52.246 173.721 51.9179C179.133 50.1957 188.237 47.4893 188.975 47.1612L188.401 46.3411C187.663 45.275 188.811 44.9469 189.877 44.7829L194.142 44.1268L193.239 43.5527L191.271 43.7988L189.959 43.4707C185.776 44.0448 180.282 45.193 175.935 46.0131C174.705 47.2433 171.998 47.8993 170.44 46.9152C171.342 45.275 176.919 44.2908 180.856 43.4707C180.446 42.9786 179.543 42.4866 178.395 42.6506C173.475 43.3887 166.668 45.357 163.715 45.357C162.813 45.357 162.403 44.7829 162.403 43.7988C162.403 39.7802 170.522 30.4308 171.998 28.8726C172.244 28.4625 172.49 27.5604 172.572 27.1504C174.869 25.1001 177.985 22.6397 178.887 21.1635L179.379 21.9836C180.364 21.0815 182.168 19.1132 184.546 17.3909C187.417 15.3406 191.435 13.7004 194.798 12.8803ZM183.644 50.1957C181.758 50.7698 179.543 51.1798 177.985 51.8359C178.313 51.9999 178.723 52.082 179.133 52.082C180.528 52.082 182.086 51.1798 183.644 50.2777V50.1957ZM175.935 53.3941C177.165 53.3941 178.067 52.9021 177.083 52.164L174.377 53.0661C174.869 53.3121 175.443 53.3941 175.935 53.3941ZM162.321 24.854L161.665 26.0022L160.845 25.5101C161.255 24.772 161.665 24.608 162.321 24.854ZM166.175 34.1214L163.633 37.8939C163.223 37.1558 164.125 35.8436 164.453 35.2695L165.437 33.7113L166.175 34.1214ZM162.895 39.0421L161.993 40.8463L161.501 40.1902L162.075 39.0421H162.895ZM192.501 45.9311L191.435 45.439L189.221 45.767L190.041 46.7512L192.501 45.9311ZM184.628 42.8146C187.088 42.8146 189.877 42.3225 190.287 40.9283C187.827 41.0924 184.382 41.7485 181.102 42.3225C181.758 42.6506 183.152 42.8146 184.628 42.8146ZM169.292 28.5446C170.194 27.4784 170.932 26.6583 171.752 26.6583C171.752 26.9863 171.752 27.3144 170.03 29.0366L169.292 28.5446ZM169.62 29.5287L168.964 30.3488L168.39 29.8567L168.882 29.0366L169.62 29.5287ZM161.173 26.8223L160.107 28.5446L159.368 27.9705L160.517 26.0842L161.173 26.8223Z" fill="white"/>
<path d="M227.617 55.1984C227.617 54.1322 228.765 53.3121 229.339 52.328C229.257 51.5079 228.519 49.5396 229.257 48.3914C229.913 47.2433 230.569 46.2591 230.898 45.685C231.226 45.193 231.964 44.7009 232.292 44.8649L233.194 45.193C236.392 40.6003 237.623 35.8436 240.247 31.1689C239.509 31.0869 238.771 31.743 238.361 32.5631L237.376 34.6134C236.966 35.4335 236.31 35.0235 236.474 34.6954C237.212 33.1372 238.197 31.2509 238.771 30.2668C239.345 29.2827 240.739 28.1345 241.805 28.4625C243.035 26.2482 245.578 23.2138 244.922 21.6556C246.808 20.5894 247.628 18.3751 247.874 16.0788C249.186 15.0946 249.432 12.8803 249.432 10.994C249.432 7.87757 248.366 3.69496 245.496 3.69496C244.676 3.69496 243.937 4.10502 243.609 4.67911C239.837 11.8962 236.638 19.1952 231.554 25.5101C230.323 25.1001 228.683 24.608 227.617 24.608C224.419 24.608 221.138 24.936 218.842 27.6424L217.12 28.1345C217.12 26.6583 218.104 25.018 219.662 24.2799C221.384 20.6714 224.337 16.6528 225.157 14.0285H225.731C226.961 9.84586 226.387 7.87757 226.305 5.08917C223.927 2.87485 224.255 0.332479 219.908 0.332479C218.842 0.332479 219.088 0.742542 218.76 0.988575C216.217 7.3855 211.051 15.3406 207.196 22.6397C205.72 25.4281 205.228 29.2006 203.752 31.907C203.178 33.0552 202.521 33.6293 202.029 34.8595L197.273 36.8277L198.585 37.5659C197.109 38.304 195.386 38.632 194.484 40.2722C196.617 40.2722 199.241 39.9442 201.127 40.3543C200.143 46.7512 197.437 49.7856 202.357 52.9841L201.947 53.9682C202.275 54.0502 202.521 54.2143 202.849 54.2143H203.26C203.342 54.2143 203.424 54.2143 203.506 54.1322C203.588 54.1322 203.67 54.0502 203.67 54.0502C204.654 55.0344 205.064 55.9365 206.786 55.9365C207.606 52.164 210.231 42.4866 211.789 38.714C212.281 37.4838 212.937 36.4997 214.249 36.4997C214.659 36.4997 215.069 36.7457 215.315 37.0738C216.053 37.0738 223.106 36.0896 225.075 36.0896L225.485 36.8277C223.024 41.3384 219.416 48.8015 219.416 53.7222C219.416 57.3307 224.255 60.5292 226.469 61.8414C227.699 61.8414 228.929 57.3307 230.159 55.0344C231.062 53.3121 232.538 50.8518 231.472 50.2777C229.667 54.0502 228.191 56.4286 227.617 55.1984ZM232.374 46.3411L232.128 46.0951C231.964 45.9311 231.718 46.0951 231.554 46.3411L230.323 48.1454L230.405 49.0475C230.405 49.2935 230.651 49.2935 230.816 48.9655L232.374 46.3411ZM236.638 36.3357L234.424 40.8463C233.932 41.9125 233.194 43.3067 232.21 43.3887L235.572 36.8277C235.736 36.4997 236.31 36.2537 236.638 36.3357ZM228.027 51.6719L226.633 54.4603L226.141 53.8042L226.961 52.164C227.207 51.6719 227.781 51.6719 228.027 51.6719ZM219.744 45.521C219.908 45.521 221.056 44.7829 221.548 42.5686L220.646 42.2405L219.744 45.521ZM194.074 39.1241C194.238 38.796 193.992 38.796 193.828 38.9601C193.09 39.6162 192.024 40.4363 192.024 40.6823L193.582 40.3543L194.074 39.1241ZM211.297 37.4838L210.395 39.9442L209.656 39.6982C210.067 38.632 210.559 37.4838 211.297 37.4838Z" fill="white"/>
<path d="M270.541 33.5473C277.266 33.5473 280.383 30.3488 287.682 33.1372C284.565 37.2378 280.629 39.2061 277.102 40.8463C276.774 42.2405 275.872 41.9945 275.216 41.9945C274.396 41.9945 274.068 43.6347 273.248 42.1585C271.443 43.1427 269.967 43.8808 269.557 44.9469C268.737 44.1268 265.785 45.193 262.176 46.8332C262.176 46.2591 262.34 45.767 262.504 45.357H263.078L263.16 42.8146L261.766 44.5369C260.864 42.9786 261.356 42.4866 262.176 41.8305C262.504 41.5024 262.832 41.0104 261.766 41.0104C262.094 40.2722 262.996 39.8622 263.652 39.2881C264.308 37.6479 264.882 36.3357 264.062 35.1875C264.636 35.1875 265.211 34.3674 265.621 33.6293L264.8 32.9732C265.211 32.9732 265.375 32.3991 266.277 32.3991C267.261 32.3991 268.901 33.5473 270.541 33.5473ZM259.224 18.2111C259.06 19.6873 259.306 20.9175 260.618 21.5735L252.253 43.9628C252.581 44.7009 252.827 45.275 253.647 45.9311L252.909 47.1612C254.057 47.6533 255.041 49.1295 256.517 49.5396C255.123 50.2777 253.565 50.9338 252.171 51.5899C252.581 52.738 252.827 54.5423 252.581 55.6905C253.565 55.1984 253.565 56.1825 253.401 57.0847C255.779 57.4127 257.173 59.8731 258.978 59.8731C259.552 59.8731 260.126 59.7091 260.7 59.217C259.798 57.4127 266.195 55.8545 274.97 51.0978C275.216 50.4417 275.462 49.5396 275.872 49.1295C277.02 50.2777 280.055 49.6216 281.941 47.8993L281.613 46.6692C283.417 45.767 285.549 45.193 287.354 45.275C287.764 45.275 294.899 39.7802 296.047 38.0579C296.621 37.8119 297.113 38.2219 297.687 37.8939C296.867 35.2695 295.309 30.8409 294.079 28.8726C291.536 26.9863 288.338 24.69 284.319 24.69C281.367 24.69 277.594 25.1001 274.97 25.2641L274.642 25.018C275.38 24.0339 277.266 22.8037 278.168 22.1476L278.742 22.5577C280.383 21.2455 281.449 19.5232 283.007 19.6873C283.909 19.7693 286.616 16.7348 287.682 16.8169C289.24 16.9809 290.47 13.5364 291.7 11.5681C291.044 10.748 291.7 10.1739 292.52 10.0919C291.782 7.87757 289.732 3.03887 287.928 3.03887C287.108 3.03887 284.647 3.44893 283.089 3.941C280.465 4.84313 278.578 6.89343 276.282 6.89343C275.708 6.89343 275.298 5.58124 275.298 4.5971H276.446C275.954 3.44893 274.806 0.742542 271.525 0.742542H270.049C267.753 4.18704 264.965 10.5019 263.406 14.8486L259.224 18.2111ZM281.695 30.6769C281.613 31.1689 280.793 31.2509 279.973 31.0869L280.055 30.4308L281.695 30.6769ZM287.026 44.7009C286.698 44.7829 285.467 44.9469 285.549 44.3728L286.862 43.9628L287.026 44.7009ZM266.277 53.5582C266.031 53.8042 265.785 53.9682 265.621 53.9682C265.539 53.9682 265.375 53.9682 265.211 53.8862C265.129 53.8042 264.965 53.6402 264.8 53.4762L266.277 53.5582ZM279.973 48.2274C279.563 48.2274 279.153 48.1454 278.742 47.8993C279.153 47.5713 280.383 47.1612 281.121 47.2433C280.793 47.8993 280.383 48.2274 279.973 48.2274ZM263.324 37.3198C263.324 37.9759 262.832 38.796 262.176 39.3701L261.848 38.796C262.176 38.468 262.422 37.8119 262.422 37.3198H263.324ZM268.901 52.328C269.311 52.328 269.147 53.3941 268.245 53.3941C267.343 53.3941 266.851 52.738 266.851 52.328C267.261 52.41 268.081 52.656 268.901 52.328ZM261.356 45.1109L260.7 46.0131L260.126 45.685C260.536 45.193 260.864 44.8649 261.356 45.1109ZM265.047 38.796C264.554 39.2061 263.652 40.1902 263.57 40.8463C263.406 41.1744 263.488 41.3384 263.734 41.5024L265.047 38.796ZM285.139 46.5872C284.893 46.4231 284.647 46.3411 284.319 46.3411C283.335 46.3411 282.761 46.8332 282.761 47.6533L285.139 46.5872ZM292.52 38.878C293.095 38.55 294.243 37.6479 294.653 38.222L293.095 39.5341L292.52 38.878ZM266.605 34.9415L266.113 34.5314C265.539 35.5976 264.8 37.8939 265.211 38.0579L266.605 34.9415Z" fill="white"/>
<path d="M342.893 36.0076C343.139 32.3991 340.023 29.6107 340.105 28.6266C340.269 26.3302 340.925 23.9519 341.417 22.1476C341.171 21.9836 341.089 21.9836 340.925 21.8196C342.155 21.0815 342.319 14.0285 342.237 13.6184C340.679 11.2401 342.401 6.81142 339.367 4.18704C338.956 3.85899 336.906 5.41722 336.988 4.02301L338.464 3.53094C337.234 2.5468 334.938 1.56266 333.872 1.23461C333.708 2.79284 331.411 1.97272 330.837 2.46479C327.639 5.00716 323.784 8.45165 319.93 13.5364C312.221 23.8699 298.525 37.1558 296.72 49.5396H298.033C297.13 51.6719 300.657 52.738 300.903 55.2804L306.07 57.4947C307.382 55.7725 308.612 52.41 310.006 49.5396L309.678 48.5554L310.088 47.4893C313.779 44.9469 326.163 38.304 330.837 38.468C331.001 39.6982 330.591 39.9442 330.673 40.9283L329.279 39.2061C329.033 40.1902 328.787 43.0606 328.541 44.2088C329.525 44.6189 329.525 42.8146 329.607 41.5024L330.591 41.9125C330.427 43.7988 329.525 47.1612 328.951 47.1612C329.033 45.9311 329.033 44.8649 328.459 44.8649C327.967 47.3253 326.983 49.7036 326.819 51.5899C326.819 52.164 327.147 52.41 327.557 52.41C327.475 52.9841 327.147 53.2301 326.737 53.2301L326.655 54.3783C327.803 54.3783 328.049 55.0344 327.967 56.6746C329.279 56.1825 331.575 58.6429 334.118 58.6429C334.938 56.1825 335.594 53.9682 335.758 51.1798C335.594 51.3438 334.774 51.7539 334.856 51.4259C336.578 49.1295 336.25 48.2274 335.758 46.9972C336.824 46.0131 337.48 43.9628 336.332 43.3067C338.054 41.6664 337.808 38.0579 338.464 36.6637C339.859 36.4997 341.417 36.1717 342.893 36.0076ZM336.25 12.5522C335.348 16.2428 334.2 22.8857 333.216 25.4281L331.821 24.1979C331.493 25.3461 330.673 26.9043 330.427 29.0366C327.475 29.8567 325.753 30.1848 322.882 31.415C319.602 32.8092 318.371 34.5314 316.731 35.5156C318.618 32.8092 320.832 29.2827 322.308 27.3964C323.374 26.0842 324.522 24.608 325.753 22.9677C325.014 21.4095 325.589 20.6714 326.901 19.1952C327.229 19.5232 326.983 20.0153 326.737 20.6714L327.147 21.0815C330.673 16.4068 334.446 11.8141 336.004 11.7321L336.25 12.5522ZM332.314 27.9705L332.231 28.8726C331.657 28.9546 331.083 28.9546 331.411 27.9705H332.314ZM332.231 27.4784H331.493L331.821 26.5763L332.149 26.6583L332.231 27.4784ZM329.361 47.4893L329.033 48.8015H328.541L328.869 47.7353L329.361 47.4893ZM317.797 41.4204L311.565 44.7009C311.893 44.1268 312.057 43.7988 312.467 43.2247C314.025 42.4046 316.731 40.6003 317.797 41.4204ZM318.782 40.9283C319.11 39.6162 319.848 39.4521 321.652 39.3701V39.4521C320.75 40.0262 319.52 40.5183 318.782 40.9283ZM335.184 14.0285L334.446 14.3565L333.79 16.5708H334.528L335.184 14.0285ZM313.287 41.7485L314.271 40.3543C314.845 40.1082 315.337 40.0262 315.993 39.7802C315.501 40.9283 313.615 41.5844 313.287 41.7485Z" fill="white"/>
<path d="M384.665 3.69496C382.614 3.44893 379.908 3.36692 377.858 3.36692C367.442 3.36692 354.156 10.0919 353.664 16.8169C353.582 18.5391 354.566 21.5735 355.058 24.1979C355.468 26.4943 357.683 28.4625 358.831 29.4467C360.307 28.3805 361.291 29.6107 363.506 32.5631C364.982 31.579 366.622 35.1875 368.672 37.1558V37.9759C363.424 42.5686 355.796 44.7829 351.942 44.7829C350.466 44.7829 348.333 41.9125 346.939 40.7643C345.627 41.7485 344.233 42.9786 344.233 45.0289C344.233 45.9311 344.971 47.3253 346.037 48.8015C345.627 50.2777 346.365 52.246 349.646 52.9021C351.614 54.7883 353.582 56.1005 354.73 56.1005C356.206 56.1005 359.733 55.3624 363.67 53.8862C363.588 51.6719 364.982 51.2618 367.524 52.328C372.363 50.1957 377.12 47.2432 379.498 43.9628L380.892 44.2908L381.384 37.7299C381.548 35.5976 380.154 32.4811 377.776 29.9388L376.873 30.5128C374.413 27.8064 370.969 26.6583 367.442 24.1979L363.998 21.7376V20.5074C371.133 15.4227 375.315 13.7824 383.598 13.7824C384.419 14.6846 381.712 14.7666 383.434 16.9809C386.551 16.3248 389.339 14.0285 389.339 12.3062C389.339 11.8961 389.175 11.4861 388.765 11.158C389.011 8.04159 387.535 5.41722 384.583 4.67911L384.665 3.69496ZM386.797 17.473C387.863 16.5708 388.109 16.4888 388.109 15.5047L386.059 16.8989L386.797 17.473ZM370.066 15.6687L363.998 19.0312C364.08 17.719 367.114 16.4888 370.066 15.5867V15.6687ZM362.685 53.3941L360.225 54.2143L359.815 53.6402L362.685 52.41V53.3941Z" fill="white"/>
<path d="M435.237 11.7321C435.155 11.2401 434.663 11.8141 434.335 11.9782C432.039 13.0443 429.988 13.6184 427.528 14.6025C426.954 12.1422 429.25 13.9464 432.531 10.994C432.695 10.83 432.531 10.666 432.367 10.666C431.219 10.5019 429.25 9.68183 428.348 9.68183C427.446 9.68183 426.708 10.1739 426.298 10.1739L425.56 8.61567C423.755 8.61567 419.819 8.20562 418.425 7.87757C419.573 5.66325 419.983 3.77698 419.901 1.97272C418.835 1.64467 414.488 0.414494 412.93 0.414494C410.059 0.414494 407.681 6.7294 403.581 6.23733C402.104 8.45165 402.022 10.4199 402.432 12.4702C396.445 25.018 391.443 32.4811 391.279 38.55C390.951 50.5237 397.758 54.8704 407.353 54.8704C412.356 54.8704 419.245 52.41 424.576 50.3597C425.724 49.9496 426.38 49.3756 426.872 48.5554C427.282 47.7353 426.708 47.9814 426.462 48.0634C422.443 49.4576 417.933 51.0158 414.652 51.9179C413.094 52.328 411.29 52.328 410.059 51.7539C414.652 50.6057 419.737 49.2115 423.837 47.8173C424.083 47.7353 424.247 47.5713 424.001 47.4893C423.427 47.1612 422.525 46.5872 422.033 46.2591L427.61 44.2088C428.266 43.8808 429.496 43.3067 429.332 42.8966C429.25 42.6506 428.922 42.7326 428.676 42.8146C424.576 44.1268 418.261 46.2591 412.93 47.7353C411.782 48.0634 411.372 46.0951 410.141 46.2591C410.141 46.7512 409.403 47.2433 408.829 47.2433L408.337 46.4231C405.959 46.9972 402.104 47.8173 399.562 45.9311C399.644 44.0448 401.53 35.0235 403.663 34.1214C407.763 32.3171 419.983 30.3488 424.986 29.5287L425.56 27.7244C424.74 27.3144 424.33 26.4943 424.658 25.5921C422.935 22.6397 422.197 21.8196 419.819 21.8196C417.441 21.8196 410.634 24.608 407.353 24.936C408.747 22.7217 409.895 20.8354 410.798 19.3592C418.015 17.3089 425.642 17.0629 433.105 13.7004C433.925 13.0443 435.401 12.5522 435.237 11.7321ZM428.43 11.4861L426.954 12.1422L426.708 11.158C427.2 10.994 428.348 11.076 428.43 11.4861ZM399.89 36.1717C400.054 35.3515 400.382 34.8595 401.448 34.9415C401.12 35.7616 400.464 36.4177 399.972 37.0738H399.89V36.1717ZM399.07 43.1427L398.66 45.357C398.004 44.8649 398.086 43.7988 398.414 42.3225L399.07 43.1427ZM423.673 42.6506C423.837 42.4046 423.755 42.1585 423.427 42.3225C420.393 43.5527 416.62 44.7829 412.848 45.603C413.832 47.1612 416.702 46.0131 418.999 44.2908C420.557 44.3728 422.689 43.7988 423.673 42.6506ZM409.403 19.4412L408.009 21.7376L406.943 21.9836L408.337 19.6873L409.403 19.4412ZM406.451 23.1318L405.631 25.018L404.565 25.1821C404.811 24.2799 405.877 23.1318 406.451 23.1318ZM400.546 37.5659L399.398 41.4204L398.824 40.6823L399.726 37.6479L400.546 37.5659Z" fill="white"/>
</svg>
